<?xml version="1.0" encoding="UTF-8" standalone="no"?>
<!-- Generator: Adobe Illustrator 15.1.0, SVG Export Plug-In  -->

<svg
   xmlns:dc="http://purl.org/dc/elements/1.1/"
   xmlns:cc="http://creativecommons.org/ns#"
   xmlns:rdf="http://www.w3.org/1999/02/22-rdf-syntax-ns#"
   xmlns:svg="http://www.w3.org/2000/svg"
   xmlns="http://www.w3.org/2000/svg"
   xmlns:xlink="http://www.w3.org/1999/xlink"
   xmlns:sodipodi="http://sodipodi.sourceforge.net/DTD/sodipodi-0.dtd"
   xmlns:inkscape="http://www.inkscape.org/namespaces/inkscape"
   version="1.1"
   x="0px"
   y="0px"
   width="360"
   height="360"
   viewBox="0 0 360 360"
   overflow="visible"
   enable-background="new 0 0 1600 1200"
   xml:space="preserve"
   id="svg3168"
   inkscape:version="0.48.2 r9819"
   sodipodi:docname="devices.svg"
   style="overflow:visible"
   inkscape:export-filename="/Users/Mongoose/Development/giftyourstories/public/images/devices.png"
   inkscape:export-xdpi="90"
   inkscape:export-ydpi="90"><metadata
   id="metadata3257"><rdf:RDF><cc:Work
       rdf:about=""><dc:format>image/svg+xml</dc:format><dc:type
         rdf:resource="http://purl.org/dc/dcmitype/StillImage" /><dc:title></dc:title></cc:Work></rdf:RDF></metadata><sodipodi:namedview
   pagecolor="#ffffff"
   bordercolor="#666666"
   borderopacity="1"
   objecttolerance="10"
   gridtolerance="10"
   guidetolerance="10"
   inkscape:pageopacity="0"
   inkscape:pageshadow="2"
   inkscape:window-width="1436"
   inkscape:window-height="856"
   id="namedview3255"
   showgrid="false"
   fit-margin-top="0"
   fit-margin-left="0"
   fit-margin-right="0"
   fit-margin-bottom="0"
   inkscape:zoom="0.75189021"
   inkscape:cx="310.01219"
   inkscape:cy="304.60015"
   inkscape:window-x="0"
   inkscape:window-y="0"
   inkscape:window-maximized="1"
   inkscape:current-layer="svg3168" />
<defs
   id="defs3170">
</defs>


<path
   sodipodi:type="arc"
   style="fill:#2980b9;fill-opacity:1;stroke:none"
   id="path4122"
   sodipodi:cx="315.98746"
   sodipodi:cy="347.96237"
   sodipodi:rx="252.03761"
   sodipodi:ry="263.32288"
   d="m 568.02507,347.96237 a 252.03761,263.32288 0 1 1 -504.075226,0 252.03761,263.32288 0 1 1 504.075226,0 z"
   transform="matrix(0.71417912,0,0,0.68357145,-45.671644,-57.857144)" />









<g
   id="g4684"
   transform="translate(2.9222618,23.527307)"><g
     style="fill:#ffffff"
     transform="matrix(0.16292051,0,0,0.16292051,3.5054854,3.8314709)"
     id="body_1_">
	<g
   style="fill:#ffffff"
   id="g3236">
		<path
   style="fill:#ffffff"
   inkscape:connector-curvature="0"
   id="path3238"
   d="m 1320.465,175 h -510.17 c -15.481,0 -28.031,12.566 -28.031,28.066 v 682.021 c 0,15.501 12.55,28.066 28.031,28.066 h 510.17 c 15.481,0 28.031,-12.565 28.031,-28.066 V 203.066 c 0,-15.5 -12.55,-28.066 -28.031,-28.066 z" />
	</g>
</g><g
     style="fill:#2980b9;fill-opacity:1"
     transform="matrix(0.16292051,0,0,0.16292051,3.505485,3.8314723)"
     id="screen_1_">
	<g
   style="fill:#2980b9;fill-opacity:1"
   id="g3241">
		<rect
   style="fill:#2980b9;fill-opacity:1"
   id="rect3243"
   height="600.62701"
   width="448.50101"
   y="245.16701"
   x="841.13" />
	</g>
</g><g
     style="fill:#2980b9;fill-opacity:1"
     transform="matrix(0.16292051,0,0,0.16292051,3.5054854,3.8314709)"
     id="camera_1_">
	<g
   style="fill:#2980b9;fill-opacity:1"
   id="g3246">
		<ellipse
   style="fill:#2980b9;fill-opacity:1"
   sodipodi:ry="5.6129999"
   sodipodi:rx="5.6059999"
   sodipodi:cy="211.487"
   sodipodi:cx="1065.38"
   d="m 1070.986,211.487 c 0,3.09997 -2.5099,5.613 -5.606,5.613 -3.0961,0 -5.606,-2.51303 -5.606,-5.613 0,-3.09997 2.5099,-5.613 5.606,-5.613 3.0961,0 5.606,2.51303 5.606,5.613 z"
   id="ellipse3248"
   ry="5.6129999"
   rx="5.6059999"
   cy="211.487"
   cx="1065.38" />
	</g>
</g><g
     style="fill:#2980b9;fill-opacity:1"
     transform="matrix(0.16292051,0,0,0.16292051,3.5054854,3.8314709)"
     id="button_1_">
	<g
   style="fill:#2980b9;fill-opacity:1"
   id="g3251">
		<ellipse
   style="fill:#2980b9;fill-opacity:1"
   sodipodi:ry="19.646"
   sodipodi:rx="19.621"
   sodipodi:cy="876.66699"
   sodipodi:cx="1065.38"
   d="m 1085.001,876.66699 c 0,10.85019 -8.7846,19.646 -19.621,19.646 -10.8364,0 -19.621,-8.79581 -19.621,-19.646 0,-10.85018 8.7846,-19.646 19.621,-19.646 10.8364,0 19.621,8.79582 19.621,19.646 z"
   id="ellipse3253"
   ry="19.646"
   rx="19.621"
   cy="876.66699"
   cx="1065.38" />
	</g>
</g></g>
<g
   id="base__x2B__screen_copy"
   enable-background="new    "
   transform="matrix(0.1783948,0,0,0.1783948,256.6583,-114.7522)"
   style="fill:#2980b9;fill-opacity:1">
	<defs
   id="defs3211">
		<path
   id="SVGID_1_"
   enable-background="new    "
   d="M 499.247,327.729 H 328.013 c -18.383,0 -33.338,14.931 -33.338,33.282 v 441.97 c 0,18.353 14.955,33.283 33.338,33.283 h 171.234 c 18.382,0 33.338,-14.931 33.338,-33.283 v -441.97 c 0,-18.351 -14.956,-33.282 -33.338,-33.282 z"
   inkscape:connector-curvature="0" />
	</defs>
	<clipPath
   id="SVGID_2_">
		<use
   xlink:href="#SVGID_1_"
   overflow="visible"
   id="use3215"
   style="overflow:visible"
   x="0"
   y="0"
   width="1600"
   height="1200" />
	</clipPath>
	
</g><g
   id="g4671"
   transform="matrix(0.88428905,0,0,0.88428905,-194.31095,264.80441)"><rect
     ry="32.947948"
     y="327.78857"
     x="294.42838"
     height="508.46225"
     width="238.04781"
     id="rect4659"
     style="fill:#ffffff;fill-opacity:1;stroke:none;overflow:visible"
     transform="matrix(0.1783948,0,0,0.1783948,256.6583,-114.7522)" /><rect
     ry="0"
     y="387.1683"
     x="317.90323"
     height="376.92456"
     width="191.09811"
     id="rect4667"
     style="fill:#2980b9;fill-opacity:1;stroke:none;overflow:visible"
     transform="matrix(0.1783948,0,0,0.1783948,256.6583,-114.7522)" /><g
     style="fill:#2980b9;fill-opacity:1"
     transform="matrix(0.1783948,0,0,0.1783948,256.6583,-114.7522)"
     id="ear_1_">
	<g
   style="fill:#2980b9;fill-opacity:1"
   id="g3221">
		<path
   style="fill:#2980b9;fill-opacity:1"
   inkscape:connector-curvature="0"
   id="path3223"
   d="m 430.762,364.563 h -35.557 c -2.679,0 -4.85,2.17 -4.85,4.846 0,2.677 2.171,4.847 4.85,4.847 h 35.557 c 2.678,0 4.849,-2.17 4.849,-4.847 -10e-4,-2.676 -2.172,-4.846 -4.849,-4.846 z" />
	</g>
</g><g
     style="fill:#2980b9;fill-opacity:1"
     transform="matrix(0.1783948,0,0,0.1783948,256.6583,-114.7522)"
     id="Camera_1_">
	<g
   style="fill:#2980b9;fill-opacity:1"
   id="g3226">
		<circle
   style="fill:#2980b9;fill-opacity:1"
   sodipodi:ry="4.5229998"
   sodipodi:rx="4.5229998"
   sodipodi:cy="349.90601"
   sodipodi:cx="414.30701"
   d="m 418.83001,349.90601 c 0,2.49798 -2.02502,4.523 -4.523,4.523 -2.49799,0 -4.523,-2.02502 -4.523,-4.523 0,-2.49799 2.02501,-4.523 4.523,-4.523 2.49798,0 4.523,2.02501 4.523,4.523 z"
   id="circle3228"
   r="4.5229998"
   cy="349.90601"
   cx="414.30701" />
	</g>
</g><g
     style="fill:#2980b9;fill-opacity:1"
     transform="matrix(0.1783948,0,0,0.1783948,256.6583,-114.7522)"
     id="Base_1_">
	<g
   style="fill:#2980b9;fill-opacity:1"
   id="g3231">
		<ellipse
   style="fill:#2980b9;fill-opacity:1"
   sodipodi:ry="20.736"
   sodipodi:rx="20.747"
   sodipodi:cy="801.11102"
   sodipodi:cx="415.47699"
   d="m 436.22399,801.11102 c 0,11.45218 -9.28875,20.736 -20.747,20.736 -11.45825,0 -20.747,-9.28382 -20.747,-20.736 0,-11.45217 9.28875,-20.736 20.747,-20.736 11.45825,0 20.747,9.28383 20.747,20.736 z"
   id="ellipse3233"
   ry="20.736"
   rx="20.747"
   cy="801.11102"
   cx="415.47699" />
	</g>
</g></g><flowRoot
   xml:space="preserve"
   id="flowRoot4632"
   style="font-size:40px;font-style:normal;font-variant:normal;font-weight:normal;font-stretch:normal;text-align:start;line-height:125%;letter-spacing:0px;word-spacing:0px;writing-mode:lr-tb;text-anchor:start;fill:#ffffff;fill-opacity:1;stroke:none;font-family:Entypo;-inkscape-font-specification:Entypo"
   transform="matrix(3.2512646,0,0,3.2512646,-500.70054,-1002.2812)"><flowRegion
     id="flowRegion4634"><rect
       id="rect4636"
       width="182.44514"
       height="218.18182"
       x="220.0627"
       y="359.24765"
       style="fill:#ffffff;fill-opacity:1" /></flowRegion><flowPara
     id="flowPara4638">📷</flowPara></flowRoot></svg>