<?xml version="1.0" encoding="UTF-8" standalone="no"?>
<!-- Created with Inkscape (http://www.inkscape.org/) -->

<svg
   xmlns:dc="http://purl.org/dc/elements/1.1/"
   xmlns:cc="http://creativecommons.org/ns#"
   xmlns:rdf="http://www.w3.org/1999/02/22-rdf-syntax-ns#"
   xmlns:svg="http://www.w3.org/2000/svg"
   xmlns="http://www.w3.org/2000/svg"
   xmlns:sodipodi="http://sodipodi.sourceforge.net/DTD/sodipodi-0.dtd"
   xmlns:inkscape="http://www.inkscape.org/namespaces/inkscape"
   width="360"
   height="360"
   id="svg4698"
   version="1.1"
   inkscape:version="0.48.2 r9819"
   sodipodi:docname="family.svg"
   inkscape:export-filename="/Users/Mongoose/Development/giftyourstories/public/images/family.png"
   inkscape:export-xdpi="90"
   inkscape:export-ydpi="90">
  <defs
     id="defs4700" />
  <sodipodi:namedview
     id="base"
     pagecolor="#ffffff"
     bordercolor="#666666"
     borderopacity="1.0"
     inkscape:pageopacity="0.0"
     inkscape:pageshadow="2"
     inkscape:zoom="1.4"
     inkscape:cx="19.835608"
     inkscape:cy="194.04684"
     inkscape:document-units="px"
     inkscape:current-layer="layer1"
     showgrid="false"
     fit-margin-top="0"
     fit-margin-left="0"
     fit-margin-right="0"
     fit-margin-bottom="0"
     inkscape:window-width="1436"
     inkscape:window-height="856"
     inkscape:window-x="0"
     inkscape:window-y="0"
     inkscape:window-maximized="1" />
  <metadata
     id="metadata4703">
    <rdf:RDF>
      <cc:Work
         rdf:about="">
        <dc:format>image/svg+xml</dc:format>
        <dc:type
           rdf:resource="http://purl.org/dc/dcmitype/StillImage" />
        <dc:title></dc:title>
      </cc:Work>
    </rdf:RDF>
  </metadata>
  <g
     inkscape:label="Layer 1"
     inkscape:groupmode="layer"
     id="layer1"
     transform="translate(-4.9999903,-6.6478938)">
    <path
       sodipodi:type="arc"
       style="fill:#2980b9;fill-opacity:1;stroke:none"
       id="path4706"
       sodipodi:cx="108.57143"
       sodipodi:cy="286.64789"
       sodipodi:rx="234.28572"
       sodipodi:ry="234.28572"
       d="m 342.85715,286.64789 c 0,129.39243 -104.89329,234.28572 -234.28572,234.28572 -129.392434,0 -234.28572,-104.89329 -234.28572,-234.28572 0,-129.39243 104.893286,-234.285723 234.28572,-234.285723 129.39243,0 234.28572,104.893293 234.28572,234.285723 z"
       transform="matrix(0.76829266,0,0,0.76829266,101.58536,-33.581575)" />
    <path
       d="m 96.7844,100.54882 c 0,0 -3.82394,10.56704 -3.82394,10.56704 0,0 -1.761178,4.84322 -1.761178,4.84322 -0.25977,0.70887 -0.56577,1.82282 -1.03469,2.3886 -0.93562,1.13375 -2.23668,0.59439 -3.37925,0.18492 -0.50413,-0.18052 -1.09413,-0.35444 -1.49039,-0.70447 -1.28125,-1.06331 -0.42488,-2.61314 0,-3.85037 0,0 3.76671,-10.34689 3.76671,-10.34689 0,0 4.176178,-11.447623 4.176178,-11.447623 0,0 2.96097,-7.705139 2.96097,-7.705139 1.3495,-2.22788 3.82615,-3.70947 6.43709,-3.74249 0,0 12.54836,0 12.54836,0 2.77825,0.004 5.2571,1.10074 6.79593,3.52235 0,0 2.90153,7.484979 2.90153,7.484979 0,0 5.67098,15.410273 5.67098,15.410273 0,0 2.33576,6.38425 2.33576,6.38425 0.38305,1.02148 1.00606,2.40841 0.69346,3.51354 -0.40067,1.40454 -4.36331,2.76284 -5.44423,1.29667 0,0 -1.87785,-4.81021 -1.87785,-4.81021 0,0 -3.07545,-8.36557 -3.07545,-8.36557 0,0 -2.26531,-6.164113 -2.26531,-6.164113 0,0 -1.99233,-5.28352 -1.99233,-5.28352 0,0 0,3.08206 0,3.08206 0.009,1.77658 0.52835,2.93675 1.00828,4.623073 0,0 2.06937,7.0447 2.06937,7.0447 0,0 4.18719,14.30953 4.18719,14.30953 -2.90593,1.3539 -5.05677,2.41721 -8.36557,2.42161 0,0 -3.3022,0 -3.3022,0 -3.99126,-0.007 -9.86917,-1.44856 -13.64909,-2.79366 0,0 -5.50367,-2.3974 -5.50367,-2.3974 -0.66704,-0.29059 -1.74796,-0.58779 -1.84703,-1.43535 -0.066,-0.56357 1.13816,-4.42275 1.37592,-5.26151 0,0 3.42548,-11.88792 3.42548,-11.88792 0.70667,-2.478853 1.52121,-5.125013 0.78813,-7.705133 0,0 -2.32916,6.824553 -2.32916,6.824553 z m 14.65737,-37.083706 c 0.92461,0.32582 2.12661,0.99506 2.82448,1.67972 4.93349,4.84543 1.30547,13.222 -5.68639,12.94021 -5.62695,-0.22674 -8.93795,-6.66604 -6.05843,-11.43881 1.14255,-1.89326 2.84209,-2.94997 4.9577,-3.42108 1.25483,-0.17172 2.75844,-0.18493 3.96264,0.23996 z m 2.42161,63.080826 c 0,0 1.98132,0.19813 1.98132,0.19813 1.72375,0.0374 5.36057,-0.40948 7.04469,-0.85197 1.32308,-0.35003 2.63956,-0.99066 3.96264,-1.12715 0,0 1.54103,6.16411 1.54103,6.16411 0,0 -12.98865,0 -12.98865,0 0,0 0,25.31686 0,25.31686 0,0 0,4.40293 0,4.40293 -0.002,0.92902 0.0396,2.26751 -0.75291,2.91915 -0.54816,0.4535 -1.43535,0.38305 -2.109,0.38305 -1.82061,0.002 -2.08699,0.16952 -3.52235,-1.10073 -0.36104,0.4469 -0.53715,0.71548 -1.10513,0.93783 -1.01928,0.40066 -3.76451,0.306 -4.52402,-0.54817 -0.6076,-0.68246 -0.53275,-1.52342 -0.53495,-2.37098 0,0 0,-29.93994 0,-29.93994 0,0 -12.988648,0 -12.988648,0 0,0 2.861898,-10.12675 2.861898,-10.12675 7.02928,3.02261 13.44436,5.21527 21.13408,5.74363 z"
       id="Selection #1"
       inkscape:connector-curvature="0"
       style="fill:#ffffff;fill-opacity:1;stroke:none" />
    <path
       d="m 268.23919,115.42877 c 0,0 0,39.3652 0,39.3652 0,0 0,9.66451 0,9.66451 -0.0142,1.01361 -0.0613,2.00598 -0.97352,2.65422 -0.86038,0.61286 -3.3425,0.41486 -4.44803,0.41015 -2.3572,-0.0118 -2.82392,-0.51152 -2.82864,-2.82864 0,0 0,-43.13673 0,-43.13673 0,0 -3.5358,0 -3.5358,0 0,0 0,35.35797 0,35.35797 0,0 0,7.54303 0,7.54303 -0.003,0.75195 0.0683,1.67125 -0.41015,2.30299 -0.64352,0.8533 -1.70426,0.75902 -2.65421,0.76138 -1.48974,0.003 -4.34195,0.45729 -5.0114,-1.18804 -0.20507,-0.50443 -0.17443,-1.32474 -0.17443,-1.87633 0,0 0,-49.02971 0,-49.02971 0,0 20.03618,0 20.03618,0 z m -7.54303,-55.464875 c 1.08902,0.384229 1.92819,0.848595 2.78856,1.631187 5.54649,5.039691 1.5864,14.289328 -5.85292,13.987611 -7.23895,-0.292296 -10.20431,-9.367502 -4.94776,-14.091327 1.20453,-1.081958 2.22284,-1.475609 3.76916,-1.819758 1.44732,-0.20037 2.85221,-0.19801 4.24296,0.292287 z m -14.14319,43.443155 c 0,0 0,13.90747 0,13.90747 -0.0401,2.798 -1.44497,2.85928 -3.77152,2.82864 -0.78494,-0.0118 -1.4426,-0.0165 -2.06726,-0.5728 -0.84388,-0.74723 -0.75902,-1.70661 -0.76137,-2.72728 0,0 0,-30.879288 0,-30.879288 0.003,-1.13853 0.0683,-2.47506 0.52329,-3.5358 1.21632,-2.82864 4.39618,-4.002527 7.25546,-4.007237 0,0 20.74334,0 20.74334,0 3.02429,0.005 6.62609,1.277597 7.59018,4.478677 0.21215,0.70244 0.18857,1.39546 0.18857,2.12148 0,0 0,26.872058 0,26.872058 0,0 0,5.42155 0,5.42155 -0.0142,0.99238 -0.0731,1.79619 -0.9688,2.41849 -0.73781,0.51387 -1.93054,0.42194 -2.80271,0.41015 -2.48448,-0.0353 -2.82392,-1.07488 -2.82863,-3.30008 0,0 0,-26.164901 0,-26.164901 0,0 -1.41433,0 -1.41433,0 0,0 0,23.100551 0,23.100551 0,0 -20.03618,0 -20.03618,0 0,0 0,-23.100551 0,-23.100551 0,0 -1.65004,0 -1.65004,0 0,0 0,12.728871 0,12.728871 z"
       id="Selection #3"
       inkscape:connector-curvature="0"
       style="fill:#ffffff;fill-opacity:1;stroke:none" />
    <path
       d="m 97.784117,272.88037 c -0.21628,0.93722 -0.39775,2.69977 -0.83031,3.45303 -0.78557,1.37474 -2.692306,1.5587 -3.796076,0.45493 -1.56617,-1.56368 -0.0348,-6.47348 0.59415,-8.3827 1.757576,-5.33739 6.011076,-11.65425 12.263299,-11.68408 0,0 5.96635,0 5.96635,0 0.65132,0 1.35485,-0.0199 1.98877,0.13175 1.0292,0.24611 2.59536,1.28525 3.48037,1.90923 3.77619,2.66496 6.4163,7.45792 7.5499,11.88047 0.22622,0.88252 0.85517,3.68173 0.80794,4.47475 -0.12927,2.1628 -2.73954,3.25663 -4.27339,1.64323 -0.68115,-0.71596 -0.83777,-2.39896 -1.07145,-3.38341 -0.49223,-2.07081 -1.23801,-4.93466 -2.76441,-6.46353 0,0 1.03417,7.95511 1.03417,7.95511 0,0 0.95213,8.45232 0.95213,8.45232 0.0621,2.63513 -0.20385,2.73208 -2.73209,2.73457 0,0 0,9.1981 0,9.1981 -0.0149,1.20819 -0.1417,2.49592 -1.07891,3.37596 -1.50401,1.41451 -4.26344,1.01179 -5.10868,-1.38718 -0.38532,-1.09632 -0.27594,-2.78678 -0.27594,-3.97756 0,0 0,-7.20932 0,-7.20932 -0.71099,0 -2.06087,-0.12678 -2.58541,0.39776 -0.4077,0.40521 -0.38782,1.05902 -0.39776,1.59102 0,0 0,7.95511 0,7.95511 -0.0522,3.69167 -3.48534,4.19882 -5.16585,2.63762 -1.07146,-0.99439 -1.0466,-2.29455 -1.04908,-3.63201 0,0 0,-8.9495 0,-8.9495 -0.87258,0 -2.162803,0.18893 -2.585423,-0.78308 -0.40521,-0.92976 0.18148,-4.50459 0.30826,-5.68045 0,0 0.994393,-8.94951 0.994393,-8.94951 0,0 0.53697,-4.47475 0.53697,-4.47475 -1.620853,1.99624 -2.197603,4.2535 -2.761923,6.71212 z m 14.943203,-36.70291 c 1.19575,0.41267 2.28958,1.0988 3.22928,1.94403 6.83145,6.16521 2.34178,17.9711 -7.20684,17.59572 -9.071323,-0.35549 -12.693393,-11.16699 -6.93836,-17.13333 1.54131,-1.59848 3.31381,-2.40394 5.44677,-2.87876 1.91669,-0.26351 3.6345,-0.16159 5.46915,0.47234 z"
       id="Selection #1-7"
       inkscape:connector-curvature="0"
       style="fill:#ffffff;stroke:none" />
    <path
       d="m 260.64164,236.29085 c 8.81365,2.3614 9.44565,14.82783 0.91261,18.06536 -1.04495,0.3947 -2.76295,0.74151 -3.87864,0.67763 -8.19308,-0.47685 -12.06487,-10.16206 -6.54806,-16.15799 1.61306,-1.75452 3.80792,-2.51428 6.09175,-2.88845 1.18185,-0.14375 2.2747,-0.004 3.42234,0.30345 z m -13.20338,35.19074 c -0.22588,0.94228 -0.48369,3.23067 -0.81679,3.87407 -0.74836,1.44423 -2.70593,1.84578 -3.91516,0.76889 -0.73922,-0.65937 -0.81222,-1.66325 -0.75291,-2.58957 0.0981,-1.52864 0.74378,-4.20035 1.18642,-5.70389 1.60849,-5.46205 5.61946,-12.08313 12.02608,-12.09225 0,0 5.7039,0 5.7039,0 0.60917,0 1.22747,-0.0183 1.82524,0.12091 1.42142,0.32856 3.51131,1.85264 4.56312,2.85424 3.05729,2.91126 4.88937,6.45452 6.02787,10.48603 0.28519,1.00845 1.05864,4.32812 0.9765,5.24758 -0.18936,2.13099 -2.92723,3.09608 -4.34637,1.50812 -0.67762,-0.75977 -0.92174,-2.96374 -1.15674,-4.01783 -0.47685,-2.12184 -1.37579,-4.61788 -2.64204,-6.38836 0,0 0,29.43209 0,29.43209 -0.002,1.04495 0.0502,1.82981 -0.60461,2.72875 -1.17957,1.61761 -3.849,1.92791 -5.23846,0.41752 -0.88297,-0.96054 -0.99476,-2.1401 -1.00161,-3.37444 0,0 0,-13.91748 0,-13.91748 0,0 -2.50972,0 -2.50972,0 0,0 0,14.14565 0,14.14565 -0.002,1.04495 0.0502,1.82981 -0.60461,2.72875 -1.20693,1.65869 -3.81247,1.87315 -5.23846,0.38785 -0.96052,-0.99932 -0.99931,-2.28383 -1.00159,-3.57291 0,0 0,-19.84955 0,-19.84955 0,-1.99637 0.20761,-8.04933 -0.22816,-9.58255 -1.23889,2.87934 -1.49898,3.24438 -2.2519,6.38838 z"
       id="Selection #2"
       inkscape:connector-curvature="0"
       style="fill:#ffffff;fill-opacity:1;stroke:none" />
    <text
       xml:space="preserve"
       style="font-size:133.42977905px;font-style:normal;font-variant:normal;font-weight:normal;font-stretch:normal;text-align:start;line-height:125%;letter-spacing:0px;word-spacing:0px;writing-mode:lr-tb;text-anchor:start;fill:#ffffff;fill-opacity:1;stroke:none;font-family:Entypo;-inkscape-font-specification:Entypo"
       x="145.61864"
       y="220.00534"
       id="text5452"
       sodipodi:linespacing="125%"><tspan
         sodipodi:role="line"
         id="tspan5454"
         x="145.61864"
         y="220.00534">🌄</tspan></text>
  </g>
</svg>
