<?xml version="1.0" encoding="UTF-8" standalone="no"?>
<!-- Generator: Adobe Illustrator 15.1.0, SVG Export Plug-In  -->

<svg
   xmlns:dc="http://purl.org/dc/elements/1.1/"
   xmlns:cc="http://creativecommons.org/ns#"
   xmlns:rdf="http://www.w3.org/1999/02/22-rdf-syntax-ns#"
   xmlns:svg="http://www.w3.org/2000/svg"
   xmlns="http://www.w3.org/2000/svg"
   xmlns:xlink="http://www.w3.org/1999/xlink"
   xmlns:sodipodi="http://sodipodi.sourceforge.net/DTD/sodipodi-0.dtd"
   xmlns:inkscape="http://www.inkscape.org/namespaces/inkscape"
   version="1.1"
   x="0px"
   y="0px"
   width="60.888218"
   height="130.05522"
   viewBox="0 0 60.888218 130.05522"
   overflow="visible"
   enable-background="new 0 0 1600 1200"
   xml:space="preserve"
   id="svg3168"
   inkscape:version="0.48.2 r9819"
   sodipodi:docname="devices.svg"
   style="overflow:visible"
   inkscape:export-filename="/Users/Mongoose/Development/giftyourstories/public/images/devices.png"
   inkscape:export-xdpi="90"
   inkscape:export-ydpi="90"><metadata
   id="metadata3257"><rdf:RDF><cc:Work
       rdf:about=""><dc:format>image/svg+xml</dc:format><dc:type
         rdf:resource="http://purl.org/dc/dcmitype/StillImage" /><dc:title></dc:title></cc:Work></rdf:RDF></metadata><sodipodi:namedview
   pagecolor="#ffffff"
   bordercolor="#666666"
   borderopacity="1"
   objecttolerance="10"
   gridtolerance="10"
   guidetolerance="10"
   inkscape:pageopacity="0"
   inkscape:pageshadow="2"
   inkscape:window-width="1436"
   inkscape:window-height="856"
   id="namedview3255"
   showgrid="false"
   fit-margin-top="0"
   fit-margin-left="0"
   fit-margin-right="0"
   fit-margin-bottom="0"
   inkscape:zoom="4.2533333"
   inkscape:cx="42.592945"
   inkscape:cy="75.540488"
   inkscape:window-x="0"
   inkscape:window-y="0"
   inkscape:window-maximized="1"
   inkscape:current-layer="g4671" />
<defs
   id="defs3170">
</defs>













<g
   id="base__x2B__screen_copy"
   enable-background="new    "
   transform="matrix(0.1783948,0,0,0.1783948,142.68073,-206.45137)"
   style="fill:#2980b9;fill-opacity:1">
	<defs
   id="defs3211">
		<path
   id="SVGID_1_"
   enable-background="new    "
   d="M 499.247,327.729 H 328.013 c -18.383,0 -33.338,14.931 -33.338,33.282 v 441.97 c 0,18.353 14.955,33.283 33.338,33.283 h 171.234 c 18.382,0 33.338,-14.931 33.338,-33.283 v -441.97 c 0,-18.351 -14.956,-33.282 -33.338,-33.282 z"
   inkscape:connector-curvature="0" />
	</defs>
	<clipPath
   id="SVGID_2_">
		<use
   xlink:href="#SVGID_1_"
   overflow="visible"
   id="use3215"
   style="overflow:visible"
   x="0"
   y="0"
   width="1600"
   height="1200" />
	</clipPath>
	
</g><g
   id="g4671"
   transform="matrix(0.88428905,0,0,0.88428905,-261.73917,74.686623)"><g
     id="g4205"
     transform="matrix(1.6214092,0,0,1.6214092,-205.32359,6.7875991)"><rect
       style="fill:#ffffff;fill-opacity:1;stroke:none;overflow:visible"
       id="rect4659"
       width="42.466492"
       height="90.707024"
       x="309.1828"
       y="-56.276424"
       ry="5.8777428" /><rect
       style="fill:#188d68;fill-opacity:1;stroke:none;overflow:visible"
       id="rect4667"
       width="34.090908"
       height="67.241379"
       x="313.37057"
       y="-45.683388"
       ry="0" /><g
       id="ear_1_"
       transform="matrix(0.1783948,0,0,0.1783948,256.6583,-114.7522)"
       style="fill:#188d68;fill-opacity:1">
	<g
   id="g3221"
   style="fill:#188d68;fill-opacity:1">
		<path
   d="m 430.762,364.563 h -35.557 c -2.679,0 -4.85,2.17 -4.85,4.846 0,2.677 2.171,4.847 4.85,4.847 h 35.557 c 2.678,0 4.849,-2.17 4.849,-4.847 -10e-4,-2.676 -2.172,-4.846 -4.849,-4.846 z"
   id="path3223"
   inkscape:connector-curvature="0"
   style="fill:#188d68;fill-opacity:1" />
	</g>
</g><g
       id="Camera_1_"
       transform="matrix(0.1783948,0,0,0.1783948,256.6583,-114.7522)"
       style="fill:#188d68;fill-opacity:1">
	<g
   id="g3226"
   style="fill:#188d68;fill-opacity:1">
		<circle
   cx="414.30701"
   cy="349.90601"
   r="4.5229998"
   id="circle3228"
   d="m 418.83001,349.90601 c 0,2.49798 -2.02502,4.523 -4.523,4.523 -2.49799,0 -4.523,-2.02502 -4.523,-4.523 0,-2.49799 2.02501,-4.523 4.523,-4.523 2.49798,0 4.523,2.02501 4.523,4.523 z"
   sodipodi:cx="414.30701"
   sodipodi:cy="349.90601"
   sodipodi:rx="4.5229998"
   sodipodi:ry="4.5229998"
   style="fill:#188d68;fill-opacity:1" />
	</g>
</g><g
       id="Base_1_"
       transform="matrix(0.1783948,0,0,0.1783948,256.6583,-114.7522)"
       style="fill:#188d68;fill-opacity:1">
	<g
   id="g3231"
   style="fill:#188d68;fill-opacity:1">
		<ellipse
   cx="415.47699"
   cy="801.11102"
   rx="20.747"
   ry="20.736"
   id="ellipse3233"
   d="m 436.22399,801.11102 c 0,11.45218 -9.28875,20.736 -20.747,20.736 -11.45825,0 -20.747,-9.28382 -20.747,-20.736 0,-11.45217 9.28875,-20.736 20.747,-20.736 11.45825,0 20.747,9.28383 20.747,20.736 z"
   sodipodi:cx="415.47699"
   sodipodi:cy="801.11102"
   sodipodi:rx="20.747"
   sodipodi:ry="20.736"
   style="fill:#188d68;fill-opacity:1" />
	</g>
</g></g></g></svg>