<?xml version="1.0" encoding="UTF-8" standalone="no"?>
<!DOCTYPE svg PUBLIC "-//W3C//DTD SVG 20010904//EN"
              "http://www.w3.org/TR/2001/REC-SVG-20010904/DTD/svg10.dtd">

<svg xmlns="http://www.w3.org/2000/svg"
     width="6.94444in" height="6.94444in"
     viewBox="0 0 500 500">
  <path id="Selection #2"
        fill="none" stroke="black" stroke-width="1"
        d="M 422.00,179.76
           C 460.63,190.11 463.40,244.75 426.00,258.94
             421.42,260.67 413.89,262.19 409.00,261.91
             373.09,259.82 356.12,217.37 380.30,191.09
             387.37,183.40 396.99,180.07 407.00,178.43
             412.18,177.80 416.97,178.41 422.00,179.76 Z
           M 364.13,334.00
           C 363.14,338.13 362.01,348.16 360.55,350.98
             357.27,357.31 348.69,359.07 343.39,354.35
             340.15,351.46 339.83,347.06 340.09,343.00
             340.52,336.30 343.35,324.59 345.29,318.00
             352.34,294.06 369.92,265.04 398.00,265.00
             398.00,265.00 423.00,265.00 423.00,265.00
             425.67,265.00 428.38,264.92 431.00,265.53
             437.23,266.97 446.39,273.65 451.00,278.04
             464.40,290.80 472.43,306.33 477.42,324.00
             478.67,328.42 482.06,342.97 481.70,347.00
             480.87,356.34 468.87,360.57 462.65,353.61
             459.68,350.28 458.61,340.62 457.58,336.00
             455.49,326.70 451.55,315.76 446.00,308.00
             446.00,308.00 446.00,437.00 446.00,437.00
             445.99,441.58 446.22,445.02 443.35,448.96
             438.18,456.05 426.48,457.41 420.39,450.79
             416.52,446.58 416.03,441.41 416.00,436.00
             416.00,436.00 416.00,375.00 416.00,375.00
             416.00,375.00 405.00,375.00 405.00,375.00
             405.00,375.00 405.00,437.00 405.00,437.00
             404.99,441.58 405.22,445.02 402.35,448.96
             397.06,456.23 385.64,457.17 379.39,450.66
             375.18,446.28 375.01,440.65 375.00,435.00
             375.00,435.00 375.00,348.00 375.00,348.00
             375.00,339.25 375.91,312.72 374.00,306.00
             368.57,318.62 367.43,320.22 364.13,334.00 Z" />
</svg>
