<?xml version="1.0" encoding="UTF-8" standalone="no"?>
<!DOCTYPE svg PUBLIC "-//W3C//DTD SVG 20010904//EN"
              "http://www.w3.org/TR/2001/REC-SVG-20010904/DTD/svg10.dtd">

<svg xmlns="http://www.w3.org/2000/svg"
     width="6.94444in" height="6.94444in"
     viewBox="0 0 500 500">
  <path id="Selection #1"
        fill="none" stroke="black" stroke-width="1"
        d="M 47.89,347.00
           C 47.02,350.77 46.29,357.86 44.55,360.89
             41.39,366.42 33.72,367.16 29.28,362.72
             22.98,356.43 29.14,336.68 31.67,329.00
             38.74,307.53 55.85,282.12 81.00,282.00
             81.00,282.00 105.00,282.00 105.00,282.00
             107.62,282.00 110.45,281.92 113.00,282.53
             117.14,283.52 123.44,287.70 127.00,290.21
             142.19,300.93 152.81,320.21 157.37,338.00
             158.28,341.55 160.81,352.81 160.62,356.00
             160.10,364.70 149.60,369.10 143.43,362.61
             140.69,359.73 140.06,352.96 139.12,349.00
             137.14,340.67 134.14,329.15 128.00,323.00
             128.00,323.00 132.16,355.00 132.16,355.00
             132.16,355.00 135.99,389.00 135.99,389.00
             136.24,399.60 135.17,399.99 125.00,400.00
             125.00,400.00 125.00,437.00 125.00,437.00
             124.94,441.86 124.43,447.04 120.66,450.58
             114.61,456.27 103.51,454.65 100.11,445.00
             98.56,440.59 99.00,433.79 99.00,429.00
             99.00,429.00 99.00,400.00 99.00,400.00
             96.14,400.00 90.71,399.49 88.60,401.60
             86.96,403.23 87.04,405.86 87.00,408.00
             87.00,408.00 87.00,440.00 87.00,440.00
             86.79,454.85 72.98,456.89 66.22,450.61
             61.91,446.61 62.01,441.38 62.00,436.00
             62.00,436.00 62.00,400.00 62.00,400.00
             58.49,400.00 53.30,400.76 51.60,396.85
             49.97,393.11 52.33,378.73 52.84,374.00
             52.84,374.00 56.84,338.00 56.84,338.00
             56.84,338.00 59.00,320.00 59.00,320.00
             52.48,328.03 50.16,337.11 47.89,347.00 Z
           M 108.00,199.36
           C 112.81,201.02 117.21,203.78 120.99,207.18
             148.47,231.98 130.41,279.47 92.00,277.96
             55.51,276.53 40.94,233.04 64.09,209.04
             70.29,202.61 77.42,199.37 86.00,197.46
             93.71,196.40 100.62,196.81 108.00,199.36 Z" />
</svg>
