<?xml version="1.0" encoding="UTF-8" standalone="no"?>
<!DOCTYPE svg PUBLIC "-//W3C//DTD SVG 20010904//EN"
              "http://www.w3.org/TR/2001/REC-SVG-20010904/DTD/svg10.dtd">

<svg xmlns="http://www.w3.org/2000/svg"
     width="6.94444in" height="6.94444in"
     viewBox="0 0 500 500">
  <path id="Selection #3"
        fill="none" stroke="black" stroke-width="1"
        d="M 420.00,261.00
           C 420.00,261.00 420.00,428.00 420.00,428.00
             420.00,428.00 420.00,469.00 420.00,469.00
             419.94,473.30 419.74,477.51 415.87,480.26
             412.22,482.86 401.69,482.02 397.00,482.00
             387.00,481.95 385.02,479.83 385.00,470.00
             385.00,470.00 385.00,287.00 385.00,287.00
             385.00,287.00 370.00,287.00 370.00,287.00
             370.00,287.00 370.00,437.00 370.00,437.00
             370.00,437.00 370.00,469.00 370.00,469.00
             369.99,472.19 370.29,476.09 368.26,478.77
             365.53,482.39 361.03,481.99 357.00,482.00
             350.68,482.01 338.58,483.94 335.74,476.96
             334.87,474.82 335.00,471.34 335.00,469.00
             335.00,469.00 335.00,261.00 335.00,261.00
             335.00,261.00 420.00,261.00 420.00,261.00 Z
           M 388.00,25.70
           C 392.62,27.33 396.18,29.30 399.83,32.62
             423.36,54.00 406.56,93.24 375.00,91.96
             344.29,90.72 331.71,52.22 354.01,32.18
             359.12,27.59 363.44,25.92 370.00,24.46
             376.14,23.61 382.10,23.62 388.00,25.70 Z
           M 328.00,210.00
           C 328.00,210.00 328.00,269.00 328.00,269.00
             327.83,280.87 321.87,281.13 312.00,281.00
             308.67,280.95 305.88,280.93 303.23,278.57
             299.65,275.40 300.01,271.33 300.00,267.00
             300.00,267.00 300.00,136.00 300.00,136.00
             300.01,131.17 300.29,125.50 302.22,121.00
             307.38,109.00 320.87,104.02 333.00,104.00
             333.00,104.00 421.00,104.00 421.00,104.00
             433.83,104.02 449.11,109.42 453.20,123.00
             454.10,125.98 454.00,128.92 454.00,132.00
             454.00,132.00 454.00,246.00 454.00,246.00
             454.00,246.00 454.00,269.00 454.00,269.00
             453.94,273.21 453.69,276.62 449.89,279.26
             446.76,281.44 441.70,281.05 438.00,281.00
             427.46,280.85 426.02,276.44 426.00,267.00
             426.00,267.00 426.00,156.00 426.00,156.00
             426.00,156.00 420.00,156.00 420.00,156.00
             420.00,156.00 420.00,254.00 420.00,254.00
             420.00,254.00 335.00,254.00 335.00,254.00
             335.00,254.00 335.00,156.00 335.00,156.00
             335.00,156.00 328.00,156.00 328.00,156.00
             328.00,156.00 328.00,210.00 328.00,210.00 Z" />
</svg>
