<?xml version="1.0" encoding="UTF-8" standalone="no"?>
<!DOCTYPE svg PUBLIC "-//W3C//DTD SVG 20010904//EN"
              "http://www.w3.org/TR/2001/REC-SVG-20010904/DTD/svg10.dtd">

<svg xmlns="http://www.w3.org/2000/svg"
     width="6.94444in" height="6.94444in"
     viewBox="0 0 500 500">
  <path id="Selection #1"
        fill="none" stroke="black" stroke-width="1"
        d="M 83.42,194.00
           C 83.42,194.00 66.05,242.00 66.05,242.00
             66.05,242.00 58.05,264.00 58.05,264.00
             56.87,267.22 55.48,272.28 53.35,274.85
             49.10,280.00 43.19,277.55 38.00,275.69
             35.71,274.87 33.03,274.08 31.23,272.49
             25.41,267.66 29.30,260.62 31.23,255.00
             31.23,255.00 48.34,208.00 48.34,208.00
             48.34,208.00 67.31,156.00 67.31,156.00
             67.31,156.00 80.76,121.00 80.76,121.00
             86.89,110.88 98.14,104.15 110.00,104.00
             110.00,104.00 167.00,104.00 167.00,104.00
             179.62,104.02 190.88,109.00 197.87,120.00
             197.87,120.00 211.05,154.00 211.05,154.00
             211.05,154.00 236.81,224.00 236.81,224.00
             236.81,224.00 247.42,253.00 247.42,253.00
             249.16,257.64 251.99,263.94 250.57,268.96
             248.75,275.34 230.75,281.51 225.84,274.85
             225.84,274.85 217.31,253.00 217.31,253.00
             217.31,253.00 203.34,215.00 203.34,215.00
             203.34,215.00 193.05,187.00 193.05,187.00
             193.05,187.00 184.00,163.00 184.00,163.00
             184.00,163.00 184.00,177.00 184.00,177.00
             184.04,185.07 186.40,190.34 188.58,198.00
             188.58,198.00 197.98,230.00 197.98,230.00
             197.98,230.00 217.00,295.00 217.00,295.00
             203.80,301.15 194.03,305.98 179.00,306.00
             179.00,306.00 164.00,306.00 164.00,306.00
             145.87,305.97 119.17,299.42 102.00,293.31
             102.00,293.31 77.00,282.42 77.00,282.42
             73.97,281.10 69.06,279.75 68.61,275.90
             68.31,273.34 73.78,255.81 74.86,252.00
             74.86,252.00 90.42,198.00 90.42,198.00
             93.63,186.74 97.33,174.72 94.00,163.00
             94.00,163.00 83.42,194.00 83.42,194.00 Z
           M 150.00,25.55
           C 154.20,27.03 159.66,30.07 162.83,33.18
             185.24,55.19 168.76,93.24 137.00,91.96
             111.44,90.93 96.40,61.68 109.48,40.00
             114.67,31.40 122.39,26.60 132.00,24.46
             137.70,23.68 144.53,23.62 150.00,25.55 Z
           M 161.00,312.09
           C 161.00,312.09 170.00,312.99 170.00,312.99
             177.83,313.16 194.35,311.13 202.00,309.12
             208.01,307.53 213.99,304.62 220.00,304.00
             220.00,304.00 227.00,332.00 227.00,332.00
             227.00,332.00 168.00,332.00 168.00,332.00
             168.00,332.00 168.00,447.00 168.00,447.00
             168.00,447.00 168.00,467.00 168.00,467.00
             167.99,471.22 168.18,477.30 164.58,480.26
             162.09,482.32 158.06,482.00 155.00,482.00
             146.73,482.01 145.52,482.77 139.00,477.00
             137.36,479.03 136.56,480.25 133.98,481.26
             129.35,483.08 116.88,482.65 113.43,478.77
             110.67,475.67 111.01,471.85 111.00,468.00
             111.00,468.00 111.00,332.00 111.00,332.00
             111.00,332.00 52.00,332.00 52.00,332.00
             52.00,332.00 65.00,286.00 65.00,286.00
             96.93,299.73 126.07,309.69 161.00,312.09 Z" />
</svg>
